<?xml version="1.0" encoding="UTF-8"?><svg xmlns="http://www.w3.org/2000/svg" xmlns:xlink="http://www.w3.org/1999/xlink" width="375" zoomAndPan="magnify" viewBox="0 0 375 374.999991" height="374.999991" preserveAspectRatio="xMidYMid meet" version="1.0"><defs><clipPath id="clip-0"><path d="M 82 31 L 273 31 L 273 352 L 82 352 Z M 82 31 " clip-rule="nonzero"/></clipPath><clipPath id="clip-1"><path d="M 76.160156 30.644531 L 277.300781 17.332031 L 298.984375 344.871094 L 97.84375 358.1875 Z M 76.160156 30.644531 " clip-rule="nonzero"/></clipPath><clipPath id="clip-2"><path d="M 76.160156 30.644531 L 697.167969 -10.464844 L 718.851562 317.078125 L 97.84375 358.1875 Z M 76.160156 30.644531 " clip-rule="nonzero"/></clipPath><clipPath id="clip-3"><path d="M 98 177 L 196 177 L 196 352 L 98 352 Z M 98 177 " clip-rule="nonzero"/></clipPath><clipPath id="clip-4"><path d="M 76.160156 30.644531 L 277.300781 17.332031 L 298.984375 344.871094 L 97.84375 358.1875 Z M 76.160156 30.644531 " clip-rule="nonzero"/></clipPath><clipPath id="clip-5"><path d="M 76.160156 30.644531 L 697.167969 -10.464844 L 718.851562 317.078125 L 97.84375 358.1875 Z M 76.160156 30.644531 " clip-rule="nonzero"/></clipPath><clipPath id="clip-6"><path d="M 293 73 L 299 73 L 299 279 L 293 279 Z M 293 73 " clip-rule="nonzero"/></clipPath><clipPath id="clip-7"><path d="M 76.160156 30.644531 L 277.300781 17.332031 L 298.984375 344.871094 L 97.84375 358.1875 Z M 76.160156 30.644531 " clip-rule="nonzero"/></clipPath><clipPath id="clip-8"><path d="M 76.160156 30.644531 L 697.167969 -10.464844 L 718.851562 317.078125 L 97.84375 358.1875 Z M 76.160156 30.644531 " clip-rule="nonzero"/></clipPath></defs><rect x="-37.5" width="450" fill="rgb(100%, 100%, 100%)" y="-37.499999" height="449.999989" fill-opacity="1"/><rect x="-37.5" width="450" fill="rgb(100%, 100%, 100%)" y="-37.499999" height="449.999989" fill-opacity="1"/><rect x="-37.5" width="450" fill="rgb(100%, 100%, 100%)" y="-37.499999" height="449.999989" fill-opacity="1"/><path stroke-linecap="butt" transform="matrix(0.000000000000000811, 13.240142, -13.218426, 0.000000000000000809, 132.515211, 87.974541)" fill="none" stroke-linejoin="miter" d="M -0.000142323 -0.0000313201 L 15.058526 -0.0000313201 " stroke="rgb(0%, 76.078796%, 79.60968%)" stroke-width="1" stroke-opacity="1" stroke-miterlimit="4"/><g clip-path="url(#clip-0)"><g clip-path="url(#clip-1)"><g clip-path="url(#clip-2)"><path fill="rgb(36.079407%, 88.238525%, 90.19928%)" d="M 89.992188 50.386719 L 97.609375 41.671875 C 109.292969 28.449219 129.746094 27.890625 142.078125 40.449219 L 263.726562 164.824219 C 274.347656 175.644531 275.355469 192.65625 266.097656 204.660156 L 162.027344 339.863281 C 151.3125 353.6875 131.21875 355.671875 118.027344 344.101562 L 109.328125 336.464844 C 97.539062 326.121094 95.582031 308.515625 104.777344 295.714844 L 166.804688 210.300781 C 175.28125 198.613281 174.359375 182.652344 164.660156 171.902344 L 90.546875 90.738281 C 80.023438 79.515625 79.792969 62.050781 89.992188 50.386719 Z M 89.992188 50.386719 " fill-opacity="1" fill-rule="nonzero"/></g></g></g><g clip-path="url(#clip-3)"><g clip-path="url(#clip-4)"><g clip-path="url(#clip-5)"><path fill="rgb(1.179504%, 59.609985%, 61.959839%)" d="M 166.6875 210.574219 L 104.664062 295.992188 C 95.457031 308.644531 97.425781 326.394531 109.210938 336.738281 L 117.914062 344.375 C 131.105469 355.949219 151.199219 353.960938 161.914062 340.140625 L 184.429688 310.835938 C 192.4375 292.035156 196.207031 271.128906 194.769531 249.378906 C 192.988281 222.480469 183.441406 198.074219 168.628906 177.996094 C 174.3125 187.957031 173.84375 200.832031 166.6875 210.574219 Z M 166.6875 210.574219 " fill-opacity="1" fill-rule="nonzero"/></g></g></g><g clip-path="url(#clip-6)"><g clip-path="url(#clip-7)"><g clip-path="url(#clip-8)"><path fill="rgb(1.179504%, 59.609985%, 61.959839%)" d="M 329.3125 277.019531 L 303.125 278.753906 L 293.027344 126.203125 L 319.210938 124.46875 L 320.269531 140.421875 C 323.25 129.496094 336.03125 120.96875 354.195312 119.765625 C 369.722656 118.738281 383.121094 123.414062 394.378906 133.792969 C 405.773438 144.03125 411.929688 157.257812 413.011719 173.609375 C 414.09375 189.964844 409.738281 203.886719 399.808594 215.800781 C 390.007812 227.441406 377.335938 233.714844 361.808594 234.742188 C 343.640625 235.945312 329.847656 229.179688 325.453125 218.734375 Z M 328.902344 155.074219 C 323.003906 161.824219 320.253906 170.21875 320.890625 179.84375 C 321.53125 189.46875 325.351562 197.292969 332.097656 203.335938 C 339.097656 209.230469 347.347656 211.996094 356.820312 211.367188 C 366.296875 210.742188 373.578125 206.949219 379.34375 200.210938 C 385.242188 193.464844 387.738281 185.085938 387.101562 175.460938 C 386.464844 165.835938 382.894531 157.992188 376.148438 151.949219 C 369.679688 146.019531 361.695312 143.238281 352.351562 143.855469 C 343.007812 144.472656 335.066406 148.3125 328.902344 155.074219 Z M 415.648438 75.707031 L 441.84375 73.972656 L 449.550781 190.394531 C 450.257812 201.070312 454.121094 205.449219 463.726562 204.8125 C 466.753906 204.613281 469.367188 204.183594 471.5625 203.371094 L 473.117188 226.839844 C 470.152344 227.96875 465.960938 228.636719 460.691406 228.984375 C 437.53125 230.515625 425.160156 219.425781 423.582031 195.558594 Z M 555.460938 124.855469 L 554.402344 108.898438 L 580.585938 107.164062 L 585.683594 184.160156 C 586.304688 193.519531 588.78125 196.933594 594.570312 196.550781 C 596.148438 196.449219 598.109375 196.050781 600.0625 195.789062 L 601.46875 217.019531 C 598.644531 218.261719 594.347656 219.214844 588.695312 219.589844 C 582.378906 220.007812 577.304688 219.289062 573.183594 217.035156 C 568.097656 214.0625 564.78125 209.914062 563.359375 204.320312 C 556.496094 216.417969 544.238281 222.933594 526.734375 224.089844 C 511.203125 225.117188 497.816406 220.570312 486.285156 210.078125 C 475.003906 199.566406 468.851562 186.339844 467.765625 169.988281 C 466.683594 153.632812 471.042969 139.710938 480.855469 128.070312 C 490.769531 116.15625 503.578125 109.878906 519.105469 108.851562 C 536.742188 107.683594 550.550781 114.714844 555.460938 124.855469 Z M 551.753906 188.664062 C 557.902344 181.898438 560.652344 173.503906 560.015625 163.878906 C 559.378906 154.253906 555.554688 146.429688 548.558594 140.402344 C 541.820312 134.492188 533.441406 131.734375 524.097656 132.351562 C 514.742188 132.972656 507.332031 136.773438 501.300781 143.53125 C 495.667969 150.257812 493.050781 158.644531 493.6875 168.269531 C 494.324219 177.894531 497.882812 185.738281 504.496094 191.792969 C 511.230469 197.703125 519.09375 200.492188 528.566406 199.867188 C 538.042969 199.238281 545.855469 195.410156 551.753906 188.664062 Z M 611.992188 238.039062 C 615.351562 238.882812 619.46875 239.265625 624.339844 238.941406 C 628.546875 238.664062 631.511719 237.546875 633.792969 235.9375 C 636.058594 234.332031 638.074219 230.753906 639.488281 226.160156 L 641.859375 218.058594 L 588.21875 106.660156 L 614.546875 104.917969 L 652.425781 185.964844 L 677.320312 100.761719 L 703.769531 99.011719 L 662.90625 230.5625 C 660.183594 239.34375 656.675781 246.199219 652.371094 250.996094 C 646.1875 257.496094 637.707031 261.234375 626.53125 261.976562 C 621.660156 262.296875 617.265625 261.921875 613.519531 261.113281 L 611.988281 238.035156 Z M 611.992188 238.039062 " fill-opacity="1" fill-rule="nonzero"/></g></g></g></svg>